<svg id="Capa_1" enable-background="new 0 0 512 512" height="512" viewBox="0 0 512 512" width="512" xmlns="http://www.w3.org/2000/svg"><path d="m242 286v-60c0-5.523-4.478-10-10-10s-10 4.477-10 10v60c0 5.523 4.478 10 10 10s10-4.477 10-10z"/><circle cx="10" cy="256" r="10"/><path d="m30 512h332c16.542 0 30-13.458 30-30v-115.422l116.623-103.085c2.147-1.898 3.377-4.626 3.377-7.493s-1.229-5.594-3.377-7.493l-116.623-103.085v-115.422c0-16.542-13.458-30-30-30h-332c-16.542 0-30 13.458-30 30v181c0 5.523 4.478 10 10 10s10-4.477 10-10v-181c0-5.514 4.486-10 10-10h252v472h-252c-5.514 0-10-4.486-10-10v-181c0-5.523-4.478-10-10-10s-10 4.477-10 10v181c0 16.542 13.458 30 30 30zm362-172.116v-53.884c0-5.523-4.478-10-10-10h-80v-40h80c5.522 0 10-4.477 10-10v-53.884l94.9 83.884zm-30-319.884c5.514 0 10 4.486 10 10v186h-70v-196zm-60 276h70v186c0 5.514-4.486 10-10 10h-60z"/></svg>