<svg id="Layer_1" enable-background="new 0 0 512 512" height="512" viewBox="0 0 512 512" width="512" xmlns="http://www.w3.org/2000/svg"><g><g><path d="m492.5 236.5c0-23.656-13.642-44.505-34.662-54.082 13.415-18.803 14.806-43.68 2.978-64.168-11.833-20.494-34.079-31.736-57.077-29.504 1.041-11.196-1.115-22.559-6.292-32.683-1.887-3.688-6.404-5.146-10.093-3.263-3.688 1.886-5.148 6.404-3.263 10.093 4.791 9.368 6.127 20.146 3.762 30.352-.746 3.221.201 6.537 2.533 8.869 2.333 2.332 5.65 3.276 8.872 2.533 19.192-4.447 38.711 4.03 48.567 21.103 9.854 17.069 7.441 38.211-6.007 52.609-2.257 2.418-3.094 5.764-2.239 8.95.855 3.189 3.258 5.67 6.424 6.635 18.84 5.747 31.497 22.849 31.497 42.556s-12.657 36.809-31.495 42.556c-3.168.965-5.57 3.445-6.426 6.635-.854 3.187-.018 6.532 2.241 8.952 13.446 14.396 15.859 35.538 6.005 52.607-9.856 17.072-29.369 25.553-48.57 21.103-3.223-.748-6.537.202-8.869 2.533-2.332 2.332-3.279 5.648-2.533 8.872 4.449 19.193-4.031 38.711-21.103 48.567-17.068 9.854-38.21 7.442-52.609-6.007-2.419-2.257-5.762-3.092-8.95-2.239-3.189.855-5.67 3.258-6.635 6.424-5.747 18.84-22.849 31.497-42.556 31.497s-36.809-12.657-42.555-31.495c-.966-3.168-3.446-5.57-6.636-6.426-3.188-.856-6.532-.017-8.951 2.241-14.398 13.447-35.539 15.858-52.608 6.005-17.071-9.856-25.552-29.374-21.104-48.565.748-3.222-.198-6.538-2.53-8.871-2.332-2.335-5.65-3.279-8.875-2.536-6.989 1.62-14.373 1.507-21.354-.327-4.006-1.054-8.107 1.343-9.16 5.349-1.052 4.006 1.342 8.106 5.348 9.159 6.74 1.771 13.764 2.34 20.67 1.702-2.224 22.998 9.01 45.248 29.504 57.08 11.485 6.631 24.349 9.105 36.75 7.638v40.546c0 12.406 10.093 22.5 22.5 22.5s22.5-10.094 22.5-22.5v-28.919c10.153 7.874 22.857 12.419 36.501 12.419s26.348-4.545 36.5-12.419v28.919c0 12.406 10.094 22.5 22.5 22.5s22.5-10.094 22.5-22.5v-40.546c12.401 1.467 25.265-1.007 36.75-7.638 20.49-11.83 31.724-34.068 29.506-57.06 22.987 2.217 45.23-9.018 57.06-29.506 11.829-20.489 10.438-45.366-2.977-64.168 21.018-9.576 34.661-30.426 34.661-54.082zm-295.5 260.5c-4.136 0-7.5-3.364-7.5-7.5v-44.376c4.338-1.738 8.51-3.999 12.417-6.786.784 1.721 1.652 3.388 2.583 5.007v46.155c0 4.136-3.364 7.5-7.5 7.5zm125.5-7.5c0 4.136-3.364 7.5-7.5 7.5s-7.5-3.364-7.5-7.5v-46.156c.931-1.619 1.798-3.285 2.582-5.006 3.907 2.788 8.08 5.048 12.418 6.786z"/><path d="m65.997 193.944c3.168-.966 5.569-3.447 6.424-6.637.854-3.187.016-6.532-2.242-8.95-13.446-14.396-15.859-35.538-6.004-52.607 9.856-17.072 29.373-25.548 48.57-21.103 3.22.747 6.54-.203 8.871-2.536 2.332-2.333 3.278-5.649 2.53-8.869-4.449-19.193 4.032-38.711 21.104-48.567 17.068-9.854 38.211-7.441 52.609 6.006 2.417 2.256 5.763 3.093 8.95 2.24 3.189-.855 5.67-3.258 6.636-6.424 5.746-18.84 22.848-31.497 42.555-31.497s36.809 12.657 42.556 31.495c.965 3.168 3.445 5.57 6.635 6.426 3.188.852 6.532.017 8.952-2.241 13.223-12.351 32.379-15.476 48.808-7.965 3.768 1.722 8.217.064 9.939-3.703s.064-8.217-3.703-9.939c-19.533-8.929-41.945-6.624-59.103 5.594-9.575-21.022-30.426-34.667-54.084-34.667-23.656 0-44.505 13.642-54.082 34.662-18.804-13.415-43.681-14.807-64.168-2.978-20.488 11.829-31.722 34.066-29.506 57.06-22.989-2.212-45.23 9.018-57.059 29.506-11.83 20.489-10.439 45.365 2.977 64.168-21.019 9.576-34.662 30.426-34.662 54.082s13.642 44.506 34.662 54.082c-13.415 18.803-14.806 43.68-2.977 64.168 1.081 1.872 2.272 3.701 3.541 5.436 1.469 2.008 3.749 3.072 6.059 3.072 1.537-.001 3.087-.472 4.422-1.448 3.343-2.445 4.07-7.138 1.625-10.481-.951-1.3-1.845-2.672-2.657-4.078-9.855-17.069-7.442-38.211 6.005-52.608 2.257-2.417 3.095-5.763 2.241-8.949-.855-3.189-3.256-5.671-6.424-6.637-18.839-5.748-31.497-22.85-31.497-42.557s12.658-36.809 31.497-42.556z"/><path d="m339.866 185.53c7.488-9.134 10.536-21.367 7.735-33.455-.936-4.035-4.967-6.546-9-5.613-4.035.936-6.548 4.965-5.613 9 2.398 10.35-2.175 20.875-11.381 26.19-9.204 5.313-20.605 4.015-28.369-3.237-2.216-2.069-5.284-2.838-8.207-2.053-2.925.784-5.198 2.985-6.081 5.884-3.099 10.159-12.321 16.985-22.949 16.985-10.627 0-19.85-6.826-22.949-16.985-.885-2.901-3.159-5.101-6.083-5.884-2.921-.783-5.988-.016-8.204 2.053-7.764 7.251-19.165 8.552-28.37 3.237-9.206-5.315-13.78-15.841-11.381-26.19.936-4.035-1.578-8.064-5.613-9-4.035-.933-8.064 1.578-9 5.613-2.802 12.087.247 24.321 7.735 33.455h-33.026c-4.142 0-7.5 3.357-7.5 7.5v7.14c0 21.152 17.208 38.36 38.36 38.36h7.53v38.239c0 43.285 35.215 78.5 78.5 78.5 18.245 0 36.05-6.463 50.134-18.199 3.182-2.651 3.611-7.381.96-10.563-2.65-3.181-7.38-3.611-10.563-.96-11.393 9.494-25.787 14.723-40.53 14.723-35.014 0-63.5-28.486-63.5-63.5v-52.01c0-8.737 1.778-17.177 5.243-25.133 8.394 1.029 16.946-.712 24.354-5.08 6.805 12.041 19.568 19.685 33.903 19.685s27.097-7.644 33.902-19.685c7.415 4.372 15.975 6.113 24.376 5.079 3.464 7.945 5.222 16.383 5.222 25.134v52.01c0 8.113-1.528 16.024-4.542 23.515-1.546 3.843.315 8.212 4.158 9.758.918.369 1.865.544 2.798.544 2.971 0 5.783-1.777 6.96-4.702 3.733-9.278 5.626-19.073 5.626-29.114v-38.241h7.53c21.151 0 38.359-17.208 38.359-38.36v-7.14c0-4.143-3.357-7.5-7.5-7.5zm-193.253 15h34.735c-2.426 7.405-3.71 15.103-3.831 23h-7.547c-12.761 0-23.164-10.284-23.357-23zm195.417 23h-7.548c-.12-7.907-1.4-15.603-3.824-23h34.728c-.193 12.716-10.596 23-23.356 23z"/><path d="m233.5 244v-4c0-4.143-3.358-7.5-7.5-7.5s-7.5 3.357-7.5 7.5v4c0 4.143 3.358 7.5 7.5 7.5s7.5-3.357 7.5-7.5z"/><path d="m293.5 244v-4c0-4.143-3.357-7.5-7.5-7.5s-7.5 3.357-7.5 7.5v4c0 4.143 3.357 7.5 7.5 7.5s7.5-3.357 7.5-7.5z"/><path d="m226.006 313.648c10.231 7.761 20.112 11.641 29.993 11.641s19.763-3.881 29.995-11.642c3.301-2.503 3.946-7.208 1.443-10.508s-7.206-3.947-10.508-1.443c-4.781 3.626-9.177 6.115-13.43 7.469v-7.862c9.606-3.938 16.154-14.985 16.154-25.076 0-12.399-9.506-20.73-23.654-20.73s-23.654 8.331-23.654 20.73c0 10.091 6.547 21.138 16.154 25.076v7.863c-4.253-1.354-8.649-3.843-13.429-7.468-3.3-2.505-8.005-1.858-10.508 1.443-2.502 3.299-1.856 8.005 1.444 10.507zm29.994-43.152c3.948 0 8.654.994 8.654 5.73 0 5.41-4.61 11.577-8.654 11.577s-8.654-6.167-8.654-11.577c0-4.736 4.706-5.73 8.654-5.73z"/></g></g></svg>