<svg id="Capa_1" enable-background="new 0 0 512.002 512.002" height="512" viewBox="0 0 512.002 512.002" width="512" xmlns="http://www.w3.org/2000/svg"><g><path d="m23.501 359.5v30c16.5 0 30-13.5 30-30l30-30h-30c-16.5 0-30 13.5-30 30z" fill="#ffe2a8"/><path d="m218.501 292.5c8.28 0 15-6.72 15-15 8.28 0 15-6.72 15-15 0-8.29-6.72-15-15-15h-45l-15 67v60l45-60z" fill="#ffcb63"/><path d="m218.501 314.5h-45v83.003h15c0 8.281 6.716 14.997 15 14.997s15-6.716 15-15z" fill="#ffe2a8"/><path d="m188.501 314.5-15 15.003h-90c-16.5 0-30 13.5-30 30v67.997h15c16.569 0 30-13.431 30-30 0 8.284 6.716 15 15 15s15-6.716 15-15c0 8.284 6.716 15 15 15s15-6.716 15-15c0 8.284 6.716 15 15 15s15-6.716 15-15z" fill="#fff0d3"/><path d="m158.501 277.5v37c0 8.284 6.716 15 15 15s15-6.716 15-15v-67c-16.568 0-30 13.432-30 30z" fill="#ffe2a8"/><path d="m443.501 67.5c0-28.809-19.106-53.024-45-60l-30.168 90h75.168z" fill="#ff4128"/><path d="m353.501 67.5v30h45v-90c-25.894 6.976-45 31.192-45 60z" fill="#ff6753"/><path d="m443.501 97.5c0 24.853 20.147 45 45 45 0-24.852-20.147-45-45-45z" fill="#ff4128"/><path d="m488.501 52.5c-24.853 0-45 20.147-45 45 24.853 0 45-20.147 45-45z" fill="#ff6753"/><path d="m412.593 82.048-14.092 60.452c24.853 0 45-20.147 45-45z" fill="#ff8d7e"/><path d="m413.501 97.5c0-5.429-.321-10.634-.908-15.453l-41.095-20.546c-10.928 8.21-17.997 21.278-17.997 35.998 0 24.853 20.147 45 45 45 8.284.001 15-20.146 15-44.999z" fill="#ffb4a9"/><path d="m398.501 52.5 14.899 39.832c9.413 3.341 19.543 5.168 30.101 5.168 0-24.853-20.147-45-45-45z" fill="#ffcb63"/><path d="m398.501 52.5c-10.132 0-19.481 3.35-27.003 9.002 10.532 14.02 25.066 24.856 41.901 30.831-.854-22.418-7.197-39.833-14.898-39.833z" fill="#ffe2a8"/><path d="m338.501 367.5v92h90v-137z" fill="#ffcb63"/><path d="m353.501 262.5c-9.329 10.575-15 24.454-15 39.665v95.335c0 8.284 6.716 15 15 15s15-6.716 15-15c0 8.284 6.716 15 15 15s15-6.716 15-15h30v-165z" fill="#fff0d3"/><path d="m398.501 172.5h-40c-11.045 0-20 8.954-20 20v45c0 10.685 6.036 20.007 15 25h75z" fill="#ffe2a8"/><path d="m458.501 474.5v-282c0-11.046-8.954-20-20-20h-10l-10 307c0 24.853 30.147 25 55 25h15c0-16.568-13.432-30-30-30z" fill="#ca3c29"/><path d="m428.501 459.5v-287h-30v287c0 24.853 20.147 45 45 45h30c-24.853 0-45-20.147-45-45z" fill="#ff4128"/><path d="m233.501 240.002-45-.001c-20.678 0-37.5 16.822-37.5 37.5v37c0 2.629.458 5.153 1.29 7.5h-98.79c-20.678 0-37.5 16.822-37.5 37.5v30c0 4.142 3.357 7.5 7.5 7.5 8.436 0 16.228-2.801 22.5-7.521v115.02c0 4.142 3.357 7.5 7.5 7.5s7.5-3.358 7.5-7.5v-69.5h7.5c8.439 0 16.227-2.814 22.5-7.536v77.036c0 4.142 3.357 7.5 7.5 7.5s7.5-3.358 7.5-7.5v-85.801c2.349.833 4.869 1.301 7.5 1.301 5.757 0 11.017-2.173 15-5.743 3.983 3.57 9.243 5.743 15 5.743s11.017-2.173 15-5.743c2.292 2.054 5.016 3.625 8.004 4.606v85.637c0 4.142 3.357 7.5 7.5 7.5s7.5-3.358 7.5-7.5v-85.978c2.594-.991 4.963-2.443 6.996-4.265 2.162 1.938 4.71 3.445 7.5 4.436v85.807c0 4.142 3.357 7.5 7.5 7.5s7.5-3.358 7.5-7.5v-85.79c8.729-3.096 15-11.433 15-21.21v-98.784c6.703-2.376 11.955-7.845 14.033-14.682 9.23-2.806 15.967-11.397 15.967-21.533 0-12.406-10.094-22.499-22.5-22.499zm-187.115 119.498h-.385c0 9.778-6.27 18.12-15 21.215v-21.215c0-12.407 10.094-22.5 22.5-22.5h.995c-4.291 6.067-7.129 13.719-8.11 22.5zm187.115-89.498c-4.143 0-7.5 3.358-7.5 7.5 0 4.135-3.364 7.5-7.5 7.5-4.143 0-7.5 3.358-7.5 7.5v104.998c0 4.136-3.364 7.5-7.5 7.5s-7.5-3.364-7.5-7.5c0-4.142-3.357-7.5-7.5-7.5s-7.5 3.358-7.5 7.5c0 4.136-3.364 7.5-7.5 7.5s-7.5-3.364-7.5-7.5c0-4.142-3.357-7.5-7.5-7.5s-7.5 3.358-7.5 7.5c0 4.136-3.364 7.5-7.5 7.5s-7.5-3.364-7.5-7.5c0-4.142-3.357-7.5-7.5-7.5s-7.5 3.358-7.5 7.5c0 4.136-3.364 7.5-7.5 7.5s-7.5-3.364-7.5-7.5c0-4.142-3.357-7.5-7.5-7.5s-7.5 3.358-7.5 7.5c0 12.407-10.094 22.5-22.5 22.5h-7.5v-53.5c0-17.645 9.042-29.5 22.5-29.5h90c12.406 0 22.5-10.093 22.5-22.5v-37c0-4.142-3.357-7.5-7.5-7.5s-7.5 3.358-7.5 7.5v37c0 4.136-3.364 7.5-7.5 7.5s-7.5-3.364-7.5-7.5v-37c0-12.407 10.094-22.5 22.5-22.5l45 .001c4.136 0 7.5 3.364 7.5 7.5s-3.364 7.501-7.5 7.501z"/><path d="m470.52 97.5c15.256-9.195 25.481-25.926 25.481-45 0-4.142-3.357-7.5-7.5-7.5-14.832 0-28.237 6.192-37.793 16.116-2.586-28.859-22.518-53.385-50.255-60.857-1.277-.345-2.625-.345-3.902 0-29.763 8.018-50.549 35.669-50.549 67.242v30c0 28.949 23.552 52.5 52.5 52.5 19.077 0 35.806-10.23 45-25.491 9.194 15.26 25.923 25.491 45 25.491 4.143 0 7.5-3.358 7.5-7.5-.001-19.074-10.226-35.806-25.482-45.001zm-72.019 37.5c-20.678 0-37.5-16.822-37.5-37.5 0-9.663 3.675-18.483 9.7-25.139 16.691 18.804 39.576 30.244 64.606 32.299-3.352 17.264-18.577 30.34-36.806 30.34zm-15.646-71.567c4.765-2.197 10.063-3.433 15.646-3.433 17.96 0 33.005 12.694 36.651 29.58-20.154-2-38.58-11.212-52.297-26.147zm15.646-18.433c-14.44 0-27.535 5.861-37.036 15.328 2.695-21.045 17.088-38.796 37.036-45.02 19.948 6.223 34.341 23.974 37.036 45.02-9.501-9.466-22.596-15.328-37.036-15.328zm81.537 15.963c-3.217 13.896-14.179 24.857-28.074 28.074 3.217-13.895 14.179-24.857 28.074-28.074zm-28.074 45c13.896 3.217 24.857 14.179 28.074 28.074-13.895-3.217-24.857-14.178-28.074-28.074z"/><path d="m466.001 467.754v-275.254c0-15.164-12.337-27.5-27.5-27.5h-80c-12.563 0-23.178 8.472-26.452 20h-46.048v-125h7.5c4.143 0 7.5-3.358 7.5-7.5s-3.357-7.5-7.5-7.5h-7.5v-37.5c0-4.142-3.357-7.5-7.5-7.5s-7.5 3.358-7.5 7.5v82.5h-7.5c-4.143 0-7.5 3.358-7.5 7.5s3.357 7.5 7.5 7.5h7.5v50h-7.5c-12.406 0-22.5 10.093-22.5 22.5s10.094 22.5 22.5 22.5h7.5v252h-7.5c-4.143 0-7.5 3.358-7.5 7.5s3.357 7.5 7.5 7.5h7.5v37.5c0 4.142 3.357 7.5 7.5 7.5s7.5-3.358 7.5-7.5v-82.5h7.5c4.143 0 7.5-3.358 7.5-7.5s-3.357-7.5-7.5-7.5h-7.5v-207h45v37.5c0 10.125 4.391 19.704 11.835 26.503-7.677 11.184-11.835 24.467-11.835 38.162v157.335c0 4.142 3.357 7.5 7.5 7.5h22.5v22.094l-24.872 8.291c-3.93 1.31-6.053 5.558-4.743 9.487 1.048 3.143 3.974 5.13 7.114 5.13.786 0 1.586-.125 2.373-.387l30-10c3.063-1.021 5.128-3.887 5.128-7.115v-27.5h15.534c3.65 25.409 25.563 45 51.966 45h45c4.143 0 7.5-3.358 7.5-7.5 0-18.109-12.904-33.261-30-36.746zm-195-282.754h-7.5c-4.136 0-7.5-3.364-7.5-7.5s3.364-7.5 7.5-7.5h7.5zm120 267h-45v-33.29c2.347.833 4.871 1.29 7.5 1.29 5.757 0 11.017-2.173 15-5.743 3.983 3.57 9.243 5.743 15 5.743 2.629 0 5.153-.458 7.5-1.29zm0-54.5c0 4.136-3.364 7.5-7.5 7.5s-7.5-3.364-7.5-7.5c0-4.142-3.357-7.5-7.5-7.5s-7.5 3.358-7.5 7.5c0 4.136-3.364 7.5-7.5 7.5s-7.5-3.364-7.5-7.5v-95.335c0-11.687 3.905-22.982 11.038-32.165h33.962zm0-142.5h-35.387c-5.968-3.98-9.613-10.532-9.613-17.5v-45c0-6.893 5.607-12.5 12.5-12.5h32.5zm52.5 242c-20.678 0-37.5-16.822-37.5-37.5v-279.5h32.5c6.893 0 12.5 5.607 12.5 12.5v282c0 4.142 3.357 7.5 7.5 7.5 9.778 0 18.119 6.27 21.215 15z"/></g></svg>